<svg width="392" height="152" viewBox="0 0 392 152" fill="none" xmlns="http://www.w3.org/2000/svg">
<circle cx="149" cy="70" r="50" fill="#020202"/>
<path d="M135.768 51.52H133.368C132.664 49.664 131.928 47.488 131.16 44.992C130.456 42.496 129.848 40.128 129.336 37.888C131.576 35.968 134.264 34.464 137.4 33.376C140.536 32.224 143.928 31.648 147.576 31.648C150.776 31.648 153.528 32.096 155.832 32.992C158.136 33.888 160.024 35.104 161.496 36.64C163.032 38.176 164.152 39.968 164.856 42.016C165.56 44 165.912 46.08 165.912 48.256C165.912 51.84 165.08 55.52 163.416 59.296C161.752 63.072 159.672 66.752 157.176 70.336C154.744 73.856 152.088 77.184 149.208 80.32C146.328 83.456 143.672 86.208 141.24 88.576L137.208 92.32V92.704L142.584 92.128H159.096L163.8 81.376H166.2C166.328 82.784 166.456 84.32 166.584 85.984C166.712 87.648 166.808 89.344 166.872 91.072C167 92.736 167.096 94.368 167.16 95.968C167.224 97.504 167.256 98.848 167.256 100H127.608V96.928C129.016 95.456 130.712 93.664 132.696 91.552C134.744 89.44 136.856 87.104 139.032 84.544C141.208 81.984 143.352 79.264 145.464 76.384C147.64 73.504 149.56 70.592 151.224 67.648C152.888 64.64 154.232 61.664 155.256 58.72C156.344 55.776 156.888 52.96 156.888 50.272C156.888 48.416 156.632 46.656 156.12 44.992C155.672 43.328 154.968 41.888 154.008 40.672C153.048 39.392 151.864 38.4 150.456 37.696C149.112 36.992 147.544 36.64 145.752 36.64C144.408 36.64 143.224 36.736 142.2 36.928C141.176 37.12 140.056 37.408 138.84 37.792L135.768 51.52Z" fill="white"/>
<path d="M1.44 54.304C3.872 52.768 6.432 51.68 9.12 51.04V42.88C9.952 42.176 10.912 41.568 12 41.056C13.152 40.48 14.272 39.936 15.36 39.424H17.76V52H32.16V56.8H17.76V84.64C17.76 88.48 18.368 91.2 19.584 92.8C20.8 94.4 22.624 95.2 25.056 95.2C26.208 95.2 27.648 95.136 29.376 95.008C31.104 94.816 32.576 94.496 33.792 94.048L34.464 95.488C33.952 96.064 33.216 96.672 32.256 97.312C31.36 97.952 30.304 98.56 29.088 99.136C27.936 99.712 26.656 100.192 25.248 100.576C23.84 100.96 22.4 101.152 20.928 101.152C17.088 101.152 14.144 100.064 12.096 97.888C10.112 95.712 9.12 92.192 9.12 87.328V56.8H1.44V54.304ZM39.561 76C39.561 71.968 40.073 68.416 41.097 65.344C42.185 62.208 43.721 59.584 45.705 57.472C47.689 55.296 50.057 53.664 52.809 52.576C55.625 51.424 58.729 50.848 62.121 50.848C66.089 50.848 69.513 51.456 72.393 52.672C75.273 53.888 77.609 55.616 79.401 57.856C81.257 60.032 82.601 62.656 83.433 65.728C84.329 68.8 84.777 72.224 84.777 76C84.777 84.064 82.729 90.272 78.633 94.624C74.537 98.976 69.033 101.152 62.121 101.152C58.281 101.152 54.953 100.576 52.137 99.424C49.321 98.208 46.985 96.512 45.129 94.336C43.273 92.096 41.865 89.44 40.905 86.368C40.009 83.232 39.561 79.776 39.561 76ZM48.777 76C48.777 78.88 49.033 81.6 49.545 84.16C50.121 86.72 50.985 88.96 52.137 90.88C53.353 92.736 54.921 94.208 56.841 95.296C58.761 96.384 61.065 96.928 63.753 96.928C67.209 96.928 70.025 95.232 72.201 91.84C74.441 88.448 75.561 83.168 75.561 76C75.561 73.056 75.273 70.336 74.697 67.84C74.185 65.28 73.353 63.072 72.201 61.216C71.049 59.296 69.577 57.792 67.785 56.704C65.993 55.616 63.849 55.072 61.353 55.072C57.577 55.072 54.537 56.768 52.233 60.16C49.929 63.552 48.777 68.832 48.777 76ZM228.83 59.2C228.126 59.584 227.23 60.384 226.142 61.6C225.118 62.752 224.19 64.48 223.358 66.784V95.296C224.638 95.424 225.918 95.68 227.198 96.064C228.478 96.384 229.758 96.896 231.038 97.6V100H208.382V97.6C209.534 96.96 210.622 96.48 211.646 96.16C212.67 95.84 213.694 95.552 214.718 95.296V57.568L208.382 56.8V54.304C210.43 53.408 212.542 52.704 214.718 52.192C216.894 51.616 218.974 51.168 220.958 50.848H223.358V61.024H223.742C224.318 59.744 225.118 58.464 226.142 57.184C227.23 55.904 228.446 54.752 229.79 53.728C231.198 52.704 232.702 51.936 234.302 51.424C235.966 50.848 237.662 50.656 239.39 50.848C239.838 51.68 240.222 52.608 240.542 53.632C240.926 54.592 241.278 55.616 241.598 56.704V59.2H228.83ZM285.066 93.28C284.554 94.368 283.754 95.392 282.666 96.352C281.578 97.312 280.33 98.144 278.922 98.848C277.514 99.552 275.978 100.096 274.314 100.48C272.65 100.928 270.954 101.152 269.226 101.152C265.45 101.152 262.122 100.576 259.242 99.424C256.362 98.208 253.962 96.512 252.042 94.336C250.122 92.096 248.65 89.44 247.626 86.368C246.666 83.296 246.186 79.84 246.186 76C246.186 67.808 248.074 61.568 251.85 57.28C255.626 52.992 260.97 50.848 267.882 50.848C270.122 50.848 272.33 51.168 274.506 51.808C276.682 52.384 278.602 53.376 280.266 54.784C281.994 56.192 283.37 58.08 284.394 60.448C285.482 62.752 286.026 65.632 286.026 69.088C286.026 70.176 285.962 71.296 285.834 72.448C285.77 73.536 285.61 74.72 285.354 76H255.402C255.402 78.688 255.722 81.216 256.362 83.584C257.066 85.888 258.09 87.904 259.434 89.632C260.778 91.36 262.474 92.736 264.522 93.76C266.57 94.72 268.97 95.2 271.722 95.2C273.962 95.2 276.234 94.88 278.538 94.24C280.842 93.6 282.57 92.768 283.722 91.744L285.066 93.28ZM267.498 55.072C263.85 55.072 261.066 56.32 259.146 58.816C257.226 61.248 256.074 65.568 255.69 71.776H276.81C276.874 71.2 276.906 70.656 276.906 70.144C276.97 69.568 277.002 69.024 277.002 68.512C277.002 64.416 276.234 61.152 274.698 58.72C273.162 56.288 270.762 55.072 267.498 55.072ZM345.923 100H325.283V97.6C327.011 96.704 328.899 95.936 330.947 95.296V72.544C330.947 67.68 330.243 63.84 328.835 61.024C327.427 58.208 324.867 56.8 321.155 56.8C319.555 56.8 318.051 57.088 316.643 57.664C315.299 58.24 314.083 59.04 312.995 60.064C311.971 61.024 311.075 62.144 310.307 63.424C309.539 64.64 308.931 65.92 308.483 67.264V95.296C310.467 95.68 312.387 96.448 314.243 97.6V100H293.507V97.6C295.107 96.768 297.219 96 299.843 95.296V57.568L293.507 56.8V54.304C295.171 53.6 297.091 52.96 299.267 52.384C301.443 51.808 303.715 51.296 306.083 50.848H308.483V61.6H308.579C309.923 58.656 311.843 56.128 314.339 54.016C316.899 51.904 319.971 50.848 323.555 50.848C326.115 50.848 328.387 51.168 330.371 51.808C332.419 52.384 334.115 53.44 335.459 54.976C336.803 56.512 337.827 58.592 338.531 61.216C339.235 63.776 339.587 67.04 339.587 71.008V95.296C342.147 95.744 344.259 96.512 345.923 97.6V100ZM348.971 54.304C351.403 52.768 353.963 51.68 356.651 51.04V42.88C357.483 42.176 358.443 41.568 359.531 41.056C360.683 40.48 361.803 39.936 362.891 39.424H365.291V52H379.691V56.8H365.291V84.64C365.291 88.48 365.899 91.2 367.115 92.8C368.331 94.4 370.155 95.2 372.587 95.2C373.739 95.2 375.179 95.136 376.907 95.008C378.635 94.816 380.107 94.496 381.323 94.048L381.995 95.488C381.483 96.064 380.747 96.672 379.787 97.312C378.891 97.952 377.835 98.56 376.619 99.136C375.467 99.712 374.187 100.192 372.779 100.576C371.371 100.96 369.931 101.152 368.459 101.152C364.619 101.152 361.675 100.064 359.627 97.888C357.643 95.712 356.651 92.192 356.651 87.328V56.8H348.971V54.304Z" fill="#888888"/>
<path d="M201.16 145L200.08 148.552H199.456C199.376 147.768 199.312 146.976 199.264 146.176C199.232 145.376 199.216 144.592 199.216 143.824H200.848C201.04 143.6 201.256 143.248 201.496 142.768C201.736 142.288 201.96 141.672 202.168 140.92C202.392 140.152 202.576 139.24 202.72 138.184C202.88 137.112 202.96 135.864 202.96 134.44C202.624 134.344 202.32 134.224 202.048 134.08C201.776 133.936 201.528 133.784 201.304 133.624V133H211.504V133.624C211.072 133.912 210.544 134.104 209.92 134.2V143.824H212.056C212.072 144.592 212.056 145.376 212.008 146.176C211.96 146.976 211.888 147.768 211.792 148.552H211.192L210.112 145H201.16ZM204.28 134.2C204.28 135.64 204.208 136.896 204.064 137.968C203.92 139.04 203.744 139.96 203.536 140.728C203.344 141.48 203.136 142.112 202.912 142.624C202.688 143.12 202.488 143.52 202.312 143.824H207.76V134.2H204.28ZM213.742 139C213.742 137.992 213.87 137.104 214.126 136.336C214.398 135.552 214.782 134.896 215.278 134.368C215.774 133.824 216.366 133.416 217.054 133.144C217.758 132.856 218.534 132.712 219.382 132.712C220.374 132.712 221.23 132.864 221.95 133.168C222.67 133.472 223.254 133.904 223.702 134.464C224.166 135.008 224.502 135.664 224.71 136.432C224.934 137.2 225.046 138.056 225.046 139C225.046 141.016 224.534 142.568 223.51 143.656C222.486 144.744 221.11 145.288 219.382 145.288C218.422 145.288 217.59 145.144 216.886 144.856C216.182 144.552 215.598 144.128 215.134 143.584C214.67 143.024 214.318 142.36 214.078 141.592C213.854 140.808 213.742 139.944 213.742 139ZM216.046 139C216.046 139.72 216.11 140.4 216.238 141.04C216.382 141.68 216.598 142.24 216.886 142.72C217.19 143.184 217.582 143.552 218.062 143.824C218.542 144.096 219.118 144.232 219.79 144.232C220.654 144.232 221.358 143.808 221.902 142.96C222.462 142.112 222.742 140.792 222.742 139C222.742 138.264 222.67 137.584 222.526 136.96C222.398 136.32 222.19 135.768 221.902 135.304C221.614 134.824 221.246 134.448 220.798 134.176C220.35 133.904 219.814 133.768 219.19 133.768C218.246 133.768 217.486 134.192 216.91 135.04C216.334 135.888 216.046 137.208 216.046 139ZM230.991 145H226.767V144.4C227.295 144.144 227.823 143.952 228.351 143.824L228.711 134.44C228.375 134.312 228.079 134.176 227.823 134.032C227.567 133.888 227.335 133.752 227.127 133.624V133H231.807L234.279 140.008L234.735 141.664H234.807L235.311 139.984L237.879 133H242.415V133.624C242.207 133.752 241.975 133.864 241.719 133.96C241.463 134.056 241.167 134.136 240.831 134.2L241.311 143.824C241.839 143.92 242.367 144.112 242.895 144.4V145H237.807V144.4C237.967 144.32 238.159 144.232 238.383 144.136C238.607 144.04 238.895 143.936 239.247 143.824L238.767 134.104H238.575L234.639 145H233.991L230.103 134.104H229.911L229.551 143.824C230.127 144 230.607 144.192 230.991 144.4V145ZM253.488 141.856C253.488 142.208 253.496 142.512 253.512 142.768C253.528 143.024 253.544 143.296 253.56 143.584L255.216 143.824V144.328C254.816 144.536 254.368 144.72 253.872 144.88C253.392 145.04 252.928 145.16 252.48 145.24H251.88C251.72 144.872 251.624 144.472 251.592 144.04C251.56 143.592 251.536 143.104 251.52 142.576H251.4C251.336 142.896 251.208 143.224 251.016 143.56C250.84 143.88 250.6 144.168 250.296 144.424C250.008 144.68 249.664 144.888 249.264 145.048C248.864 145.208 248.408 145.288 247.896 145.288C246.92 145.288 246.12 144.992 245.496 144.4C244.888 143.808 244.584 143.032 244.584 142.072C244.584 141.336 244.728 140.736 245.016 140.272C245.32 139.792 245.76 139.416 246.336 139.144C246.912 138.872 247.624 138.68 248.472 138.568C249.32 138.44 250.304 138.344 251.424 138.28C251.488 137.592 251.504 136.976 251.472 136.432C251.456 135.872 251.368 135.4 251.208 135.016C251.064 134.616 250.84 134.312 250.536 134.104C250.248 133.88 249.864 133.768 249.384 133.768C249.16 133.768 248.904 133.784 248.616 133.816C248.344 133.832 248.072 133.896 247.8 134.008L246.672 136.888H246.048C245.888 136.408 245.744 135.912 245.616 135.4C245.504 134.888 245.432 134.384 245.4 133.888C246.008 133.52 246.68 133.232 247.416 133.024C248.168 132.816 249 132.712 249.912 132.712C250.728 132.712 251.376 132.832 251.856 133.072C252.352 133.296 252.728 133.592 252.984 133.96C253.24 134.328 253.408 134.736 253.488 135.184C253.568 135.632 253.608 136.08 253.608 136.528C253.608 137.488 253.584 138.416 253.536 139.312C253.504 140.192 253.488 141.04 253.488 141.856ZM248.856 143.8C249.256 143.8 249.608 143.72 249.912 143.56C250.216 143.4 250.472 143.208 250.68 142.984C250.888 142.76 251.056 142.536 251.184 142.312C251.312 142.072 251.4 141.872 251.448 141.712V139.192C250.52 139.192 249.76 139.24 249.168 139.336C248.576 139.432 248.112 139.584 247.776 139.792C247.44 140 247.208 140.264 247.08 140.584C246.952 140.888 246.888 141.24 246.888 141.64C246.888 142.328 247.064 142.864 247.416 143.248C247.768 143.616 248.248 143.8 248.856 143.8ZM262.538 133H267.626V133.624C267.45 133.72 267.242 133.816 267.002 133.912C266.778 134.008 266.506 134.104 266.186 134.2V140.776L265.922 143.008H266.042L266.978 141.208L272.114 133H275.354V133.624C274.842 133.912 274.314 134.104 273.77 134.2V143.824C274.074 143.904 274.362 143.992 274.634 144.088C274.906 144.168 275.146 144.272 275.354 144.4V145H270.266V144.4C270.714 144.144 271.194 143.952 271.706 143.824V136.96L271.946 135.064H271.826L270.914 136.864L265.826 145H262.538V144.4C262.81 144.272 263.074 144.168 263.33 144.088C263.586 143.992 263.85 143.904 264.122 143.824V134.2C263.498 134.104 262.97 133.912 262.538 133.624V133ZM289.933 133H294.565V133.624C294.405 133.752 294.189 133.864 293.917 133.96C293.661 134.056 293.341 134.168 292.957 134.296C292.413 134.952 291.837 135.616 291.229 136.288C290.621 136.96 289.981 137.632 289.309 138.304C289.661 138.688 290.029 139.112 290.413 139.576C290.813 140.04 291.213 140.52 291.613 141.016C292.013 141.512 292.413 142 292.813 142.48C293.213 142.96 293.605 143.408 293.989 143.824L295.117 144.4V145H292.309L291.541 144.448C290.821 143.584 290.165 142.72 289.573 141.856C288.981 140.992 288.381 140.144 287.773 139.312H286.813V143.824C287.133 143.904 287.421 143.992 287.677 144.088C287.949 144.168 288.181 144.272 288.373 144.4V145H283.069V144.4C283.501 144.144 284.029 143.952 284.653 143.824V134.2C284.093 134.088 283.565 133.896 283.069 133.624V133H287.989V133.624C287.829 133.736 287.653 133.84 287.461 133.936C287.285 134.032 287.069 134.12 286.813 134.2V138.688L287.917 138.448C288.557 137.712 289.165 137.024 289.741 136.384C290.317 135.744 290.853 135.048 291.349 134.296C291.077 134.184 290.821 134.08 290.581 133.984C290.357 133.872 290.141 133.752 289.933 133.624V133ZM306.661 141.496C306.661 142.136 306.517 142.688 306.229 143.152C305.941 143.6 305.549 143.968 305.053 144.256C304.573 144.544 304.013 144.76 303.373 144.904C302.733 145.032 302.061 145.096 301.357 145.096C300.845 145.096 300.437 145.088 300.133 145.072C299.829 145.072 299.573 145.064 299.365 145.048C299.157 145.032 298.981 145.016 298.837 145C298.693 145 298.533 145 298.357 145H296.053V144.4C296.549 144.144 297.077 143.952 297.637 143.824V134.2C297.029 134.088 296.501 133.896 296.053 133.624V133H298.213C298.597 133 298.925 133 299.197 133C299.469 132.984 299.725 132.968 299.965 132.952C300.205 132.936 300.445 132.928 300.685 132.928C300.925 132.912 301.189 132.904 301.477 132.904C302.885 132.904 303.981 133.12 304.765 133.552C305.549 133.968 305.941 134.704 305.941 135.76C305.941 136.144 305.861 136.488 305.701 136.792C305.541 137.096 305.333 137.36 305.077 137.584C304.821 137.808 304.533 138 304.213 138.16C303.893 138.304 303.581 138.408 303.277 138.472C303.725 138.504 304.149 138.592 304.549 138.736C304.965 138.88 305.325 139.08 305.629 139.336C305.949 139.576 306.197 139.88 306.373 140.248C306.565 140.6 306.661 141.016 306.661 141.496ZM299.797 143.968C300.021 144.016 300.301 144.04 300.637 144.04C300.989 144.04 301.277 144.04 301.501 144.04C302.445 144.04 303.149 143.84 303.613 143.44C304.077 143.024 304.309 142.44 304.309 141.688C304.309 140.904 304.029 140.32 303.469 139.936C302.909 139.536 302.189 139.336 301.309 139.336H299.797V143.968ZM299.797 138.616L302.461 138.376C302.749 138.232 303.037 137.968 303.325 137.584C303.629 137.184 303.781 136.664 303.781 136.024C303.781 135.24 303.541 134.704 303.061 134.416C302.597 134.112 301.909 133.96 300.997 133.96C300.821 133.96 300.621 133.968 300.397 133.984C300.173 133.984 299.973 134.008 299.797 134.056V138.616ZM317.637 141.856C317.637 142.208 317.645 142.512 317.661 142.768C317.677 143.024 317.693 143.296 317.709 143.584L319.365 143.824V144.328C318.965 144.536 318.517 144.72 318.021 144.88C317.541 145.04 317.077 145.16 316.629 145.24H316.029C315.869 144.872 315.773 144.472 315.741 144.04C315.709 143.592 315.685 143.104 315.669 142.576H315.549C315.485 142.896 315.357 143.224 315.165 143.56C314.989 143.88 314.749 144.168 314.445 144.424C314.157 144.68 313.813 144.888 313.413 145.048C313.013 145.208 312.557 145.288 312.045 145.288C311.069 145.288 310.269 144.992 309.645 144.4C309.037 143.808 308.733 143.032 308.733 142.072C308.733 141.336 308.877 140.736 309.165 140.272C309.469 139.792 309.909 139.416 310.485 139.144C311.061 138.872 311.773 138.68 312.621 138.568C313.469 138.44 314.453 138.344 315.573 138.28C315.637 137.592 315.653 136.976 315.621 136.432C315.605 135.872 315.517 135.4 315.357 135.016C315.213 134.616 314.989 134.312 314.685 134.104C314.397 133.88 314.013 133.768 313.533 133.768C313.309 133.768 313.053 133.784 312.765 133.816C312.493 133.832 312.221 133.896 311.949 134.008L310.821 136.888H310.197C310.037 136.408 309.893 135.912 309.765 135.4C309.653 134.888 309.581 134.384 309.549 133.888C310.157 133.52 310.829 133.232 311.565 133.024C312.317 132.816 313.149 132.712 314.061 132.712C314.877 132.712 315.525 132.832 316.005 133.072C316.501 133.296 316.877 133.592 317.133 133.96C317.389 134.328 317.557 134.736 317.637 135.184C317.717 135.632 317.757 136.08 317.757 136.528C317.757 137.488 317.733 138.416 317.685 139.312C317.653 140.192 317.637 141.04 317.637 141.856ZM313.005 143.8C313.405 143.8 313.757 143.72 314.061 143.56C314.365 143.4 314.621 143.208 314.829 142.984C315.037 142.76 315.205 142.536 315.333 142.312C315.461 142.072 315.549 141.872 315.597 141.712V139.192C314.669 139.192 313.909 139.24 313.317 139.336C312.725 139.432 312.261 139.584 311.925 139.792C311.589 140 311.357 140.264 311.229 140.584C311.101 140.888 311.037 141.24 311.037 141.64C311.037 142.328 311.213 142.864 311.565 143.248C311.917 143.616 312.397 143.8 313.005 143.8ZM325.986 149.8H320.658V149.2C321.202 148.944 321.73 148.752 322.242 148.624V134.392L320.658 134.2V133.576C321.17 133.352 321.69 133.176 322.218 133.048C322.762 132.904 323.29 132.792 323.802 132.712H324.402V135.4H324.426C324.746 134.584 325.194 133.936 325.77 133.456C326.346 132.96 327.098 132.712 328.026 132.712C329.45 132.712 330.554 133.184 331.338 134.128C332.122 135.072 332.514 136.608 332.514 138.736C332.514 139.744 332.378 140.656 332.106 141.472C331.85 142.288 331.474 142.976 330.978 143.536C330.498 144.096 329.906 144.528 329.202 144.832C328.514 145.136 327.746 145.288 326.898 145.288C326.306 145.288 325.842 145.248 325.506 145.168C325.17 145.104 324.802 144.984 324.402 144.808V148.624C324.658 148.656 324.914 148.712 325.17 148.792C325.426 148.888 325.698 149.024 325.986 149.2V149.8ZM327.258 134.2C326.474 134.2 325.85 134.448 325.386 134.944C324.922 135.44 324.594 136.12 324.402 136.984V143.704C324.69 143.88 325.01 144.016 325.362 144.112C325.73 144.192 326.202 144.232 326.778 144.232C327.306 144.232 327.778 144.096 328.194 143.824C328.626 143.552 328.986 143.168 329.274 142.672C329.578 142.176 329.81 141.6 329.97 140.944C330.13 140.272 330.21 139.536 330.21 138.736C330.21 138.08 330.154 137.48 330.042 136.936C329.946 136.376 329.778 135.896 329.538 135.496C329.314 135.08 329.01 134.76 328.626 134.536C328.258 134.312 327.802 134.2 327.258 134.2ZM341.725 145H336.397V144.4C336.893 144.144 337.421 143.952 337.981 143.824V134.056H335.749L334.693 136.936H334.069C333.989 136.248 333.925 135.576 333.877 134.92C333.829 134.248 333.797 133.608 333.781 133H344.341C344.325 133.576 344.293 134.208 344.245 134.896C344.213 135.568 344.149 136.248 344.053 136.936H343.429L342.373 134.056H340.141V143.824C340.893 144.016 341.421 144.208 341.725 144.4V145ZM345.952 133H351.04V133.624C350.864 133.72 350.656 133.816 350.416 133.912C350.192 134.008 349.92 134.104 349.6 134.2V140.776L349.336 143.008H349.456L350.392 141.208L355.528 133H358.768V133.624C358.256 133.912 357.728 134.104 357.184 134.2V143.824C357.488 143.904 357.776 143.992 358.048 144.088C358.32 144.168 358.56 144.272 358.768 144.4V145H353.68V144.4C354.128 144.144 354.608 143.952 355.12 143.824V136.96L355.36 135.064H355.24L354.328 136.864L349.24 145H345.952V144.4C346.224 144.272 346.488 144.168 346.744 144.088C347 143.992 347.264 143.904 347.536 143.824V134.2C346.912 134.104 346.384 133.912 345.952 133.624V133ZM365.783 149.8H360.455V149.2C360.999 148.944 361.527 148.752 362.039 148.624V134.392L360.455 134.2V133.576C360.967 133.352 361.487 133.176 362.015 133.048C362.559 132.904 363.087 132.792 363.599 132.712H364.199V135.4H364.223C364.543 134.584 364.991 133.936 365.567 133.456C366.143 132.96 366.895 132.712 367.823 132.712C369.247 132.712 370.351 133.184 371.135 134.128C371.919 135.072 372.311 136.608 372.311 138.736C372.311 139.744 372.175 140.656 371.903 141.472C371.647 142.288 371.271 142.976 370.775 143.536C370.295 144.096 369.703 144.528 368.999 144.832C368.311 145.136 367.543 145.288 366.695 145.288C366.103 145.288 365.639 145.248 365.303 145.168C364.967 145.104 364.599 144.984 364.199 144.808V148.624C364.455 148.656 364.711 148.712 364.967 148.792C365.223 148.888 365.495 149.024 365.783 149.2V149.8ZM367.055 134.2C366.271 134.2 365.647 134.448 365.183 134.944C364.719 135.44 364.391 136.12 364.199 136.984V143.704C364.487 143.88 364.807 144.016 365.159 144.112C365.527 144.192 365.999 144.232 366.575 144.232C367.103 144.232 367.575 144.096 367.991 143.824C368.423 143.552 368.783 143.168 369.071 142.672C369.375 142.176 369.607 141.6 369.767 140.944C369.927 140.272 370.007 139.536 370.007 138.736C370.007 138.08 369.951 137.48 369.839 136.936C369.743 136.376 369.575 135.896 369.335 135.496C369.111 135.08 368.807 134.76 368.423 134.536C368.055 134.312 367.599 134.2 367.055 134.2ZM377.985 137.896C378.257 137.864 378.561 137.824 378.897 137.776C379.233 137.728 379.721 137.704 380.361 137.704C381.561 137.704 382.521 137.984 383.241 138.544C383.977 139.104 384.345 139.984 384.345 141.184C384.345 141.824 384.225 142.392 383.985 142.888C383.761 143.368 383.441 143.776 383.025 144.112C382.609 144.432 382.113 144.68 381.537 144.856C380.961 145.016 380.329 145.096 379.641 145.096C379.209 145.096 378.721 145.08 378.177 145.048C377.649 145.016 377.081 145 376.473 145H374.241V144.4C374.513 144.24 374.777 144.12 375.033 144.04C375.289 143.96 375.553 143.888 375.825 143.824V134.2C375.521 134.152 375.241 134.08 374.985 133.984C374.729 133.872 374.481 133.752 374.241 133.624V133H379.425V133.624C379.057 133.848 378.577 134.04 377.985 134.2V137.896ZM377.985 143.968C378.193 143.984 378.401 144 378.609 144.016C378.817 144.032 379.033 144.04 379.257 144.04C381.065 144.04 381.969 143.08 381.969 141.16C381.969 140.712 381.897 140.336 381.753 140.032C381.625 139.712 381.441 139.464 381.201 139.288C380.977 139.096 380.713 138.96 380.409 138.88C380.105 138.8 379.785 138.76 379.449 138.76C379.225 138.76 378.985 138.768 378.729 138.784C378.473 138.784 378.225 138.808 377.985 138.856V143.968ZM390.273 145H385.113V144.4C385.337 144.288 385.561 144.184 385.785 144.088C386.009 143.992 386.257 143.904 386.529 143.824V134.2C385.921 134.088 385.441 133.896 385.089 133.624V133H390.273V133.624C390.081 133.752 389.849 133.864 389.577 133.96C389.305 134.04 389.009 134.12 388.689 134.2V143.824C388.961 143.904 389.225 143.992 389.481 144.088C389.737 144.168 390.001 144.272 390.273 144.4V145Z" fill="#888888"/>
</svg>
