<svg width="68" height="68" viewBox="0 0 68 68" fill="none" xmlns="http://www.w3.org/2000/svg">
<path d="M34 67.9062C52.7305 67.9062 67.9062 52.7305 67.9062 34C67.9062 15.2695 52.7305 0.09375 34 0.09375C15.2695 0.09375 0.09375 15.2695 0.09375 34C0.09375 52.7305 15.2695 67.9062 34 67.9062ZM18.1406 27.9844H34V18.291C34 16.8281 35.7773 16.0898 36.8027 17.1289L52.4297 32.8379C53.0723 33.4805 53.0723 34.5059 52.4297 35.1484L36.8027 50.8711C35.7637 51.9102 34 51.1719 34 49.709V40.0156H18.1406C17.2383 40.0156 16.5 39.2773 16.5 38.375V29.625C16.5 28.7227 17.2383 27.9844 18.1406 27.9844Z" fill="black"/>
</svg>
