<svg width="68" height="68" viewBox="0 0 68 68" fill="none" xmlns="http://www.w3.org/2000/svg">
<path d="M34 0.09375C15.2695 0.09375 0.09375 15.2695 0.09375 34C0.09375 52.7305 15.2695 67.9062 34 67.9062C52.7305 67.9062 67.9062 52.7305 67.9062 34C67.9062 15.2695 52.7305 0.09375 34 0.09375ZM49.8594 40.0156H34V49.709C34 51.1719 32.2227 51.9102 31.1973 50.8711L15.5703 35.1621C14.9277 34.5195 14.9277 33.4941 15.5703 32.8516L31.1973 17.1289C32.2363 16.0898 34 16.8281 34 18.291V27.9844H49.8594C50.7617 27.9844 51.5 28.7227 51.5 29.625V38.375C51.5 39.2773 50.7617 40.0156 49.8594 40.0156Z" fill="black"/>
</svg>
